<?xml version="1.0" standalone="no"?>
<!DOCTYPE svg PUBLIC "-//W3C//DTD SVG 20010904//EN"
 "http://www.w3.org/TR/2001/REC-SVG-20010904/DTD/svg10.dtd">
<svg version="1.0" xmlns="http://www.w3.org/2000/svg"
 width="466.000000pt" height="342.000000pt" viewBox="0 0 466.000000 342.000000"
 preserveAspectRatio="xMidYMid meet">
<metadata>
Created by potrace 1.16, written by Peter Selinger 2001-2019
</metadata>
<g transform="translate(0.000000,342.000000) scale(0.100000,-0.100000)"
fill="#000000" stroke="none">
<path d="M3594 2718 c-110 -11 -209 -52 -300 -124 l-40 -32 -43 49 c-68 79
-118 103 -227 107 -106 5 -167 -11 -235 -60 l-42 -31 -26 31 c-14 16 -40 37
-58 46 -42 21 -144 21 -186 0 -76 -39 -70 -24 -353 -816 -241 -675 -272 -755
-302 -786 -44 -43 -105 -71 -158 -72 -89 0 -87 48 13 312 76 201 77 204 77
298 0 101 -12 139 -72 218 l-25 32 47 49 c59 64 129 173 252 390 90 160 99
180 102 235 2 47 -1 68 -16 92 -54 86 -202 85 -283 -3 -15 -15 -86 -134 -159
-263 -72 -129 -148 -261 -168 -292 l-37 -57 -95 6 c-95 6 -194 -11 -228 -39
-7 -6 7 45 32 113 24 68 65 182 90 252 51 143 58 208 28 266 -25 50 -63 74
-125 79 -84 7 -166 -45 -201 -128 -8 -19 -73 -204 -144 -410 -72 -206 -199
-571 -282 -810 -137 -394 -151 -440 -148 -488 14 -165 210 -205 313 -64 25 35
70 154 181 473 l147 427 32 -34 c17 -18 44 -38 59 -44 44 -17 141 -12 198 10
65 25 63 25 88 0 38 -38 28 -109 -41 -298 -56 -151 -62 -176 -66 -264 -5 -87
-3 -101 19 -150 33 -70 75 -118 136 -151 107 -58 233 -71 365 -37 l77 19 46
-21 c55 -24 126 -20 176 9 69 40 80 66 322 739 128 358 246 674 261 703 56
102 151 162 233 146 77 -14 105 -83 79 -191 -9 -35 -111 -325 -227 -643 -226
-624 -231 -642 -190 -709 24 -39 89 -71 143 -72 74 0 150 49 187 120 10 19
115 310 235 645 120 336 233 641 253 678 44 84 116 153 175 165 117 23 184
-48 154 -164 -8 -27 -84 -243 -170 -480 -86 -237 -164 -460 -173 -495 -21 -82
-15 -186 15 -254 56 -126 208 -215 370 -215 272 0 495 198 620 553 17 49 31
101 31 115 0 87 -116 150 -198 108 -44 -23 -68 -56 -110 -152 -52 -122 -86
-179 -145 -241 -85 -90 -166 -115 -214 -67 -21 21 -25 32 -20 64 3 22 93 280
201 574 110 302 200 562 206 598 6 43 6 84 -1 127 -34 216 -208 334 -455 309z"/>
</g>
</svg>
